<?xml version="1.0" encoding="utf-8"?>
<!-- Generator: Adobe Illustrator 19.0.0, SVG Export Plug-In . SVG Version: 6.00 Build 0)  -->
<svg version="1.1" id="Layer_1" xmlns="http://www.w3.org/2000/svg" xmlns:xlink="http://www.w3.org/1999/xlink" x="0px" y="0px"
	 viewBox="-49 141 512 512" style="enable-background:new -49 141 512 512;" xml:space="preserve">
<style type="text/css">
	.st0{fill:#5DCABF;}
</style>
<g>
	<g>
		<g>
			<path class="st0" d="M113.1,397h34.1c4.7,0,8.5-3.8,8.5-8.5c0-4.7-3.8-8.5-8.5-8.5h-34.1c-4.7,0-8.5,3.8-8.5,8.5
				C104.6,393.2,108.4,397,113.1,397z"/>
			<path class="st0" d="M79,345.8c4.7,0,8.5-3.8,8.5-8.5s-3.8-8.5-8.5-8.5H44.9c-4.7,0-8.5,3.8-8.5,8.5v68.3c0,4.7,3.8,8.5,8.5,8.5
				H79c4.7,0,8.5-3.8,8.5-8.5S83.7,397,79,397H53.4v-17.1H79c4.7,0,8.5-3.8,8.5-8.5s-3.8-8.5-8.5-8.5H53.4v-17.1H79z"/>
			<path class="st0" d="M207,550.6c-4.7,0-8.5,3.8-8.5,8.5v22.1l-57.2,57.2c-3.3,3.3-3.3,8.7,0,12.1c1.7,1.7,3.8,2.5,6,2.5
				c2.2,0,4.4-0.8,6-2.5l59.7-59.7c1.6-1.6,2.5-3.8,2.5-6v-25.6C215.5,554.4,211.7,550.6,207,550.6z"/>
			<path class="st0" d="M238.6,604.3c-3.3-3.3-8.7-3.3-12.1,0c-3.3,3.3-3.3,8.7,0,12.1l34.1,34.1c1.7,1.7,3.8,2.5,6,2.5
				c2.2,0,4.4-0.8,6-2.5c3.3-3.3,3.3-8.7,0-12.1L238.6,604.3z"/>
			<path class="st0" d="M454.5,158.1H215.5v-8.5c0-4.7-3.8-8.5-8.5-8.5s-8.5,3.8-8.5,8.5v8.5H-40.5c-4.7,0-8.5,3.8-8.5,8.5v34.1
				c0,4.7,3.8,8.5,8.5,8.5h443.7c4.7,0,8.5-3.8,8.5-8.5c0-4.7-3.8-8.5-8.5-8.5H-31.9v-17.1h477.9v17.1h-8.5c-4.7,0-8.5,3.8-8.5,8.5
				v290.1c0,14.1-11.5,25.6-25.6,25.6H10.7c-14.1,0-25.6-11.5-25.6-25.6v-256c0-4.7-3.8-8.5-8.5-8.5s-8.5,3.8-8.5,8.5v256
				c0,23.5,19.1,42.7,42.7,42.7h392.5c23.5,0,42.7-19.1,42.7-42.7V209.3h8.5c4.7,0,8.5-3.8,8.5-8.5v-34.1
				C463,161.9,459.2,158.1,454.5,158.1z"/>
			<path class="st0" d="M377.7,337.3c0-14.1-11.5-25.6-25.6-25.6s-25.6,11.5-25.6,25.6c0,4.7,3.8,8.5,8.5,8.5s8.5-3.8,8.5-8.5
				c0-4.7,3.8-8.5,8.5-8.5s8.5,3.8,8.5,8.5c-0.2,2.6-6.9,9.8-13.7,14.5l-17.1,12.8c-2.9,2.2-4.1,6-3,9.5c1.2,3.5,4.4,5.8,8.1,5.8
				h34.1c4.7,0,8.5-3.8,8.5-8.5c0-4.7-3.8-8.5-8.5-8.5h-8.5C367.1,357.7,377.7,347.8,377.7,337.3z"/>
			<path class="st0" d="M283.8,345.8c4.7,0,8.5,3.8,8.5,8.5c0,4.7,3.8,8.5,8.5,8.5s8.5-3.8,8.5-8.5c0-14.1-11.5-25.6-25.6-25.6
				s-25.6,11.5-25.6,25.6v34.1c0,14.1,11.5,25.6,25.6,25.6s25.6-11.5,25.6-25.6c0-4.7-3.8-8.5-8.5-8.5s-8.5,3.8-8.5,8.5
				c0,4.7-3.8,8.5-8.5,8.5s-8.5-3.8-8.5-8.5v-34.1C275.3,349.6,279.1,345.8,283.8,345.8z"/>
			<path class="st0" d="M232.6,414.1c4.7,0,8.5-3.8,8.5-8.5v-68.3c0-3.7-2.3-6.9-5.8-8.1c-3.5-1.2-7.3,0.1-9.5,3l-18.8,25l-18.8-25
				c-2.2-2.9-6-4.1-9.5-3c-3.5,1.2-5.8,4.4-5.8,8.1v68.3c0,4.7,3.8,8.5,8.5,8.5s8.5-3.8,8.5-8.5v-42.7l10.2,13.7
				c3.2,4.3,10.4,4.3,13.7,0l10.2-13.7v42.7C224.1,410.2,227.9,414.1,232.6,414.1z"/>
			<path class="st0" d="M113.1,362.9h34.1c4.7,0,8.5-3.8,8.5-8.5c0-4.7-3.8-8.5-8.5-8.5h-34.1c-4.7,0-8.5,3.8-8.5,8.5
				C104.6,359,108.4,362.9,113.1,362.9z"/>
		</g>
	</g>
</g>
</svg>
