<?xml version="1.0" encoding="utf-8"?>
<!-- Generator: Adobe Illustrator 19.0.0, SVG Export Plug-In . SVG Version: 6.00 Build 0)  -->
<svg version="1.1" id="图层_1" xmlns="http://www.w3.org/2000/svg" xmlns:xlink="http://www.w3.org/1999/xlink" x="0px" y="0px"
	 viewBox="-49 141 512 512" style="enable-background:new -49 141 512 512;" xml:space="preserve">
<style type="text/css">
	.st0{fill:#5DCABF;}
</style>
<g>
	<path class="st0" d="M-23.2,581.2c0,0.4,0,0.8,0.4,1.6c0,0.4,0.4,1.2,0.4,1.6c0,0.4,0.4,0.8,0.4,1.6c0.4,0.4,0.4,0.8,0.8,1.6
		c0.4,0.4,0.4,0.8,0.8,1.2c0.4,0.4,0.8,0.8,0.8,1.2c0.4,0.4,0.8,0.8,1.2,1.2l0.4,0.4c0,0,0.4,0,0.4,0.4c1.2,1.2,2.8,2,4.4,2.4
		c0.4,0,0.4,0,0.8,0.4c1.6,0.4,3.2,0.8,4.8,0.8l0,0h428.3l0,0c1.6,0,3.2-0.4,4.8-0.8c0.4,0,0.4,0,0.8-0.4c1.6-0.8,3.2-1.6,4.4-2.4
		c0,0,0.4,0,0.4-0.4l0.4-0.4c0.4-0.4,0.8-0.8,1.2-1.2c0.4-0.4,0.8-0.8,0.8-1.2c0.4-0.4,0.4-0.8,0.8-1.2c0.4-0.4,0.4-0.8,0.8-1.6
		c0.4-0.4,0.4-0.8,0.4-1.6c0-0.4,0.4-1.2,0.4-1.6s0.4-0.8,0.4-1.6c0-0.4,0-1.2,0-1.6c0-0.4,0-0.4,0-0.8V215.2
		c0-9.1-7.1-16.3-16.3-16.3H-7.3c-9.1,0-16.3,7.1-16.3,16.3v363.6c0,0.4,0,0.4,0,0.8C-23.2,580-23.2,580.4-23.2,581.2L-23.2,581.2z
		 M27.6,562.5l120.3-143.7l50,34.9c2.8,2,6,2.8,9.1,2.8s6.4-0.8,9.1-2.8l50-34.9l120.3,143.7L27.6,562.5L27.6,562.5z M405.1,533.9
		L292.7,400.2L404.7,322v211.9H405.1z M9.3,231.5h395.7v51.2L207.4,420.4L9.3,282.7L9.3,231.5L9.3,231.5z M9.3,322l111.9,78.2
		L9.3,533.9V322L9.3,322z"/>
</g>
</svg>
