<?xml version="1.0" encoding="utf-8"?>
<!-- Generator: Adobe Illustrator 19.0.0, SVG Export Plug-In . SVG Version: 6.00 Build 0)  -->
<svg version="1.1" id="Layer_1" xmlns="http://www.w3.org/2000/svg" xmlns:xlink="http://www.w3.org/1999/xlink" x="0px" y="0px"
	 viewBox="-49 141 512 512" style="enable-background:new -49 141 512 512;" xml:space="preserve">
<style type="text/css">
	.st0{fill:#5DCABF;}
</style>
<g>
	<g>
		<g>
			<path class="st0" d="M326.5,456.7c0-4.7-3.8-8.5-8.5-8.5h-51.2c-4.7,0-8.5,3.8-8.5,8.5s3.8,8.5,8.5,8.5h51.2
				C322.6,465.3,326.5,461.4,326.5,456.7z"/>
			<path class="st0" d="M292.3,234.9v-42.7c0-4.7-3.8-8.5-8.5-8.5s-8.5,3.8-8.5,8.5v42.7c0,23.5,19.1,42.7,42.7,42.7h76.8v162.1
				c0,4.7,3.8,8.5,8.5,8.5s8.5-3.8,8.5-8.5V269c0-4.7-3.8-8.5-8.5-8.5h-85.3C303.8,260.5,292.3,249,292.3,234.9z"/>
			<path class="st0" d="M317.9,345.8h-68.3c-4.7,0-8.5,3.8-8.5,8.5s3.8,8.5,8.5,8.5h68.3c4.7,0,8.5-3.8,8.5-8.5
				C326.5,349.6,322.6,345.8,317.9,345.8z"/>
			<path class="st0" d="M224.1,354.3c0-4.7-3.8-8.5-8.5-8.5h-51.2c-4.7,0-8.5,3.8-8.5,8.5c0,4.7,3.8,8.5,8.5,8.5h51.2
				C220.2,362.9,224.1,359,224.1,354.3z"/>
			<path class="st0" d="M164.3,397c-4.7,0-8.5,3.8-8.5,8.5s3.8,8.5,8.5,8.5h17.1c4.7,0,8.5-3.8,8.5-8.5s-3.8-8.5-8.5-8.5H164.3
				L164.3,397z"/>
			<path class="st0" d="M164.3,311.7h85.3c4.7,0,8.5-3.8,8.5-8.5s-3.8-8.5-8.5-8.5h-85.3c-4.7,0-8.5,3.8-8.5,8.5
				C155.8,307.8,159.6,311.7,164.3,311.7z"/>
			<path class="st0" d="M215.5,414.1h85.3c4.7,0,8.5-3.8,8.5-8.5s-3.8-8.5-8.5-8.5h-85.3c-4.7,0-8.5,3.8-8.5,8.5
				S210.8,414.1,215.5,414.1z"/>
			<path class="st0" d="M266.7,499.4c-4.7,0-8.5,3.8-8.5,8.5c0,4.7,3.8,8.5,8.5,8.5h17.1c4.7,0,8.5-3.8,8.5-8.5
				c0-4.7-3.8-8.5-8.5-8.5H266.7z"/>
			<path class="st0" d="M232.6,448.2h-68.3c-4.7,0-8.5,3.8-8.5,8.5s3.8,8.5,8.5,8.5h68.3c4.7,0,8.5-3.8,8.5-8.5
				S237.3,448.2,232.6,448.2z"/>
			<path class="st0" d="M232.6,499.4h-68.3c-4.7,0-8.5,3.8-8.5,8.5c0,4.7,3.8,8.5,8.5,8.5h68.3c4.7,0,8.5-3.8,8.5-8.5
				C241.1,503.2,237.3,499.4,232.6,499.4z"/>
			<path class="st0" d="M435.8,492.5l-17.1-17.1c-13.1-13.1-33.1-13.1-46.2,0L260.7,587.2c-1.6,1.6-2.5,3.8-2.5,6v51.2
				c0,4.7,3.8,8.5,8.5,8.5h51.2c2.3,0,4.4-0.9,6-2.5l111.8-111.8C449.3,525.1,449.3,506.1,435.8,492.5z M361.5,510.6l13.5,13.5
				l-74.1,74.1l-13.5-13.5L361.5,510.6z M275.3,635.9v-39.1l39.1,39.1H275.3z M326.5,623.9l-13.5-13.5l74.1-74.1l13.5,13.5
				L326.5,623.9z M423.7,526.6l-11,11l-39.1-39.1l11-11c6.7-6.7,15.3-6.8,22.1,0l17.1,17.1C430.6,511.5,430.6,519.7,423.7,526.6z"/>
			<path class="st0" d="M232.6,635.9H10.7c-14.1,0-25.6-11.5-25.6-25.6V183.7c0-14.1,11.5-25.6,25.6-25.6h269.5l82.8,82.8
				c3.3,3.3,8.7,3.3,12.1,0c3.3-3.3,3.3-8.7,0-12.1l-85.3-85.3c-1.6-1.6-3.8-2.5-6-2.5H10.7c-23.5,0-42.7,19.1-42.7,42.7v426.7
				c0,23.5,19.1,42.7,42.7,42.7h221.9c4.7,0,8.5-3.8,8.5-8.5C241.1,639.8,237.3,635.9,232.6,635.9z"/>
			<path class="st0" d="M232.6,550.6h-68.3c-4.7,0-8.5,3.8-8.5,8.5s3.8,8.5,8.5,8.5h68.3c4.7,0,8.5-3.8,8.5-8.5
				S237.3,550.6,232.6,550.6z"/>
			<path class="st0" d="M121.7,303.1c0-4.7-3.8-8.5-8.5-8.5H61.9c-4.7,0-8.5,3.8-8.5,8.5v51.2c0,4.7,3.8,8.5,8.5,8.5h51.2
				c4.7,0,8.5-3.8,8.5-8.5V303.1z M104.6,345.8H70.5v-34.1h34.1V345.8z"/>
			<path class="st0" d="M61.9,567.7h51.2c4.7,0,8.5-3.8,8.5-8.5v-51.2c0-4.7-3.8-8.5-8.5-8.5H61.9c-4.7,0-8.5,3.8-8.5,8.5v51.2
				C53.4,563.8,57.2,567.7,61.9,567.7z M70.5,516.5h34.1v34.1H70.5C70.5,550.6,70.5,516.5,70.5,516.5z"/>
			<path class="st0" d="M73,462.8c1.6,1.6,3.8,2.5,6,2.5c0.3,0,0.6,0,0.8,0c2.5-0.2,4.8-1.6,6.3-3.8l34.1-51.2
				c2.6-3.9,1.6-9.2-2.4-11.8c-3.9-2.6-9.2-1.6-11.8,2.4l-28.4,42.5l-9.7-9.7c-3.3-3.3-8.7-3.3-12.1,0s-3.3,8.7,0,12.1L73,462.8z"/>
		</g>
	</g>
</g>
</svg>
