<?xml version="1.0" encoding="utf-8"?>
<!-- Generator: Adobe Illustrator 19.0.0, SVG Export Plug-In . SVG Version: 6.00 Build 0)  -->
<svg version="1.1" id="图层_1" xmlns="http://www.w3.org/2000/svg" xmlns:xlink="http://www.w3.org/1999/xlink" x="0px" y="0px"
	 viewBox="-49 141 512 512" style="enable-background:new -49 141 512 512;" xml:space="preserve">
<style type="text/css">
	.st0{fill:#5DCABF;}
</style>
<g>
	<g>
		<path class="st0" d="M207,166.4c-101.2,0-183.8,82.6-183.8,184.2c0,12.3,1.2,24.6,3.6,36.5c0,0.8,0.4,1.6,0.4,2.8
			c20.2,90.9,162.7,227.4,168.7,233c3.2,3.2,7.1,4.4,11.1,4.4s7.9-1.6,11.1-4.4c6-6,147.6-142.1,167.9-231c0-0.8,0.4-1.6,0.4-2.4
			c2.8-12.7,4-25.8,4-38.9C390.8,249,308.2,166.4,207,166.4L207,166.4z M354.6,383.5c0,0.8,0,0.4,0,1.2
			C339.6,450.6,240.7,554.6,207,588.3C173.3,554.6,74,450.6,59,383.1c0-0.8,0-1.2-0.4-2c-2-10.3-3.2-20.6-3.2-31
			c0-83.3,67.9-151.6,151.2-151.6s151.6,67.9,151.6,151.6C358.2,361.7,357,372.8,354.6,383.5L354.6,383.5z"/>
		<path class="st0" d="M207,270c-34.1,0-61.5,27.8-61.5,61.5S173.3,393,207,393s61.5-27.4,61.5-61.5S241.1,270,207,270z M207,360.9
			c-16.3,0-29.4-13.1-29.4-29.4s13.1-29.4,29.4-29.4s29.4,13.1,29.4,29.4S223.3,360.9,207,360.9z"/>
	</g>
</g>
</svg>
